<?xml version="1.0" encoding="UTF-8"?>
<svg id="_图层_2" data-name="图层 2" xmlns="http://www.w3.org/2000/svg" viewBox="0 0 268.6 268.66">
  <defs>
    <style>
      .cls-1 {
        fill: #05a;
      }

      .cls-1, .cls-2 {
        stroke-width: 0px;
      }

      .cls-2 {
        fill: #007fff;
      }
    </style>
  </defs>
  <g id="_图层_1-2" data-name="图层 1">
    <g>
      <path class="cls-1" d="m.02,143.05v72.01c0,8.58,9.13,18.01,17.91,18.01h8.95v27c.3,2.06-.73,18.25,17.91,0l35.81-27h170.1c8.78,0,17.91-9.43,17.91-18.01v-72.01c-7.4,4.62-59.75,36-134.29,36S7.42,147.68.02,143.05Z"/>
      <path class="cls-2" d="m250.69,27h-62.67V9C188.02.03,178.64,0,170.12,0h-71.62c-8.53,0-17.91.31-17.91,9v18H17.92C8.81,27,0,38.64,0,47.79v85.75s51.49,37.41,131.56,37.41,137.03-37.93,137.03-37.93V45c0-9.14-8.79-18-17.91-18ZM89.42,95.35c0,6.66-5.4,12.06-12.06,12.06h-2.64c-6.66,0-12.06-5.4-12.06-12.06v-11.64c0-6.66,5.4-12.06,12.06-12.06h2.64c6.66,0,12.06,5.4,12.06,12.06v11.64ZM170.15,20.61l-.17,6.26h-71.56v-8.95c-.9,0,0-.91,0,0h71.56c.9,0,.17,1.79.17,2.7Zm35.55,74.74c0,6.66-5.4,12.06-12.06,12.06h-2.64c-6.66,0-12.06-5.4-12.06-12.06v-11.64c0-6.66,5.4-12.06,12.06-12.06h2.64c6.66,0,12.06,5.4,12.06,12.06v11.64Z"/>
    </g>
  </g>
</svg>