<?xml version="1.0" standalone="no"?><!DOCTYPE svg PUBLIC "-//W3C//DTD SVG 1.1//EN" "http://www.w3.org/Graphics/SVG/1.1/DTD/svg11.dtd"><svg t="1761535369375" class="icon" viewBox="0 0 1024 1024" version="1.1" xmlns="http://www.w3.org/2000/svg" p-id="7855" xmlns:xlink="http://www.w3.org/1999/xlink" width="200" height="200"><path d="M885.028571 607.085714H138.971429C73.142857 607.085714 14.628571 665.6 14.628571 731.428571v95.085715c0 65.828571 58.514286 124.342857 124.342858 124.342857h746.057142c65.828571 0 124.342857-58.514286 124.342858-124.342857V731.428571c0-65.828571-58.514286-124.342857-124.342858-124.342857z m65.828572 219.428572c0 36.571429-29.257143 65.828571-65.828572 65.828571H138.971429c-36.571429 0-65.828571-29.257143-65.828572-65.828571V731.428571c0-36.571429 29.257143-65.828571 65.828572-65.828571h746.057142c36.571429 0 65.828571 29.257143 65.828572 65.828571v95.085715zM885.028571 73.142857H138.971429C73.142857 73.142857 14.628571 131.657143 14.628571 197.485714V292.571429c0 65.828571 58.514286 124.342857 124.342858 124.342857h746.057142c65.828571 0 124.342857-58.514286 124.342858-124.342857V197.485714c0-65.828571-58.514286-124.342857-124.342858-124.342857z m65.828572 219.428572c0 36.571429-29.257143 65.828571-65.828572 65.828571H138.971429c-36.571429 0-65.828571-29.257143-65.828572-65.828571V197.485714c0-36.571429 29.257143-65.828571 65.828572-65.828571h746.057142c36.571429 0 65.828571 29.257143 65.828572 65.828571V292.571429z" p-id="7856"></path><path d="M782.628571 197.485714c-14.628571 0-29.257143 7.314286-36.571428 14.628572-7.314286 7.314286-14.628571 21.942857-14.628572 36.571428s7.314286 29.257143 14.628572 36.571429 21.942857 14.628571 36.571428 14.628571 29.257143-7.314286 36.571429-14.628571 14.628571-21.942857 14.628571-36.571429 0-29.257143-14.628571-36.571428c-7.314286-7.314286-21.942857-14.628571-36.571429-14.628572zM782.628571 724.114286c-14.628571 0-29.257143 7.314286-36.571428 14.628571-7.314286 7.314286-14.628571 21.942857-14.628572 36.571429s7.314286 29.257143 14.628572 36.571428c7.314286 7.314286 21.942857 14.628571 36.571428 14.628572s29.257143-7.314286 36.571429-14.628572c7.314286-7.314286 14.628571-21.942857 14.628571-36.571428s-7.314286-29.257143-14.628571-36.571429c-7.314286-7.314286-21.942857-14.628571-36.571429-14.628571z" p-id="7857"></path></svg>