<svg fill="none" xmlns="http://www.w3.org/2000/svg" viewBox="0 0 92 28" class="design-iconfont">
  <mask id="nb250v0h1__6cecox5n5a" style="mask-type:alpha" maskUnits="userSpaceOnUse" x="0" y="0" width="92" height="28">
    <path fill="#D9D9D9" d="M0 0H92V28H0z"/>
  </mask>
  <g mask="url(#nb250v0h1__6cecox5n5a)">
    <path d="M2.43652 14.9297V22.4346C2.43652 23.3288 3.40612 24.3116 4.33855 24.3116H5.28904V27.1256C5.3209 27.3403 5.21151 29.0276 7.19107 27.1256L10.9941 24.3116H29.0586C29.991 24.3116 30.9606 23.3288 30.9606 22.4346V14.9297C30.1747 15.4112 24.6152 18.6816 16.6991 18.6816C8.783 18.6816 3.2224 15.4122 2.43652 14.9297Z" fill="#05A"/>
    <path d="M29.0577 2.83349H22.4022V0.957518C22.4022 0.0216157 21.406 0.0195312 20.5001 0.0195312H12.8952C11.9893 0.0195312 10.9932 0.0518397 10.9932 0.957518V2.83349H4.33766C3.37019 2.83349 2.43457 4.04662 2.43457 5.00024V13.9372C2.43457 13.9372 7.90277 17.8361 16.4062 17.8361C24.8925 17.8361 30.9587 13.883 30.9587 13.883V4.70947C30.9597 3.75689 30.0252 2.83349 29.0577 2.83349ZM11.9309 9.95698C11.9309 10.6511 11.3574 11.2139 10.6502 11.2139H10.3698C9.6625 11.2139 9.08902 10.6511 9.08902 9.95698V8.74385C9.08902 8.04974 9.6625 7.48695 10.3698 7.48695H10.6502C11.3574 7.48695 11.9309 8.04974 11.9309 8.74385V9.95698ZM20.5044 2.16752L20.4863 2.81994H12.8867V1.88717C12.8867 1.79233 12.7911 1.88717 12.8867 1.88717H20.4863C20.5819 1.88613 20.5044 2.07268 20.5044 2.16752ZM24.2798 9.95698C24.2798 10.6511 23.7063 11.2139 22.999 11.2139H22.7186C22.0114 11.2139 21.4379 10.6511 21.4379 9.95698V8.74385C21.4379 8.04974 22.0114 7.48695 22.7186 7.48695H22.999C23.7063 7.48695 24.2798 8.04974 24.2798 8.74385V9.95698Z" fill="#007FFF"/>
    <path d="M63.1415 6.86216V4.68618L50.5266 4.70564C50.7342 3.99329 50.8637 3.59754 51.21 2.82031H47.896C47.826 3.01494 47.8881 2.99029 47.7506 3.44313C47.5431 4.02573 47.3699 4.44743 47.2324 4.70564L39.6104 4.68618V6.86216L45.9687 6.84269C44.5873 9.56234 43.7109 10.4369 40.6044 12.7686V15.5661C42.122 14.6591 42.6758 14.2322 43.9184 13.3901V24.27H46.5702V19.2965H57.5063L57.4851 20.8886C57.5525 21.6658 57.0766 22.1563 56.1804 22.0927H54.8558V24.2687H57.5076C59.854 24.3323 60.5585 23.0503 60.4898 20.8497V8.72672L48.3732 8.74619C48.9245 7.96896 49.0778 7.74968 49.4916 6.8414L63.1415 6.86216ZM57.5076 17.4306H46.902V15.2547H57.5076V17.4306ZM57.5076 10.9027V13.0787H46.902V10.9027H57.5076Z" fill="#000"/>
    <path d="M81.3723 2.82031H77.7265V4.37477H68.1149V16.1863C68.1823 19.3601 68.0317 20.6031 66.7891 22.0927V24.2687C69.3892 22.6675 70.2207 22.1044 70.7653 19.1239V6.55075H90.3189V4.37477H81.3723V2.82031Z" fill="#000"/>
    <path d="M86.3467 8.41586L86.2938 7.17282H83.7386L83.6963 8.41586H77.4001V7.17282H74.7483V8.41586H71.4343V10.2817H74.7483V13.7007H83.6963C85.621 13.7656 86.3573 13.161 86.2938 11.1031L86.3467 10.2817H89.6607V8.41586H86.3467ZM83.6963 10.5931C83.6963 11.4936 83.576 11.5118 82.7022 11.5248H77.4001V10.2817H83.6963V10.5931Z" fill="#000"/>
    <path d="M88.3362 16.4983V14.6338H72.7589V16.8097H84.689C83.4464 18.1047 82.2039 18.6042 80.7537 19.3166C79.5786 18.7327 78.4338 18.4031 77.3987 17.4313H74.0847C75.3273 18.856 76.0729 19.6072 77.7305 20.5791C76.4879 21.0332 74.6783 21.5756 71.4343 22.0933V23.9592C75.5071 23.3117 78.5805 22.5851 80.8595 21.7443C82.8608 22.5851 85.7743 23.2987 90.2635 23.8813V22.0362C87.7082 21.7118 85.3962 21.259 83.3248 20.6764C85.3249 19.5748 86.9534 18.3123 88.3362 16.4983Z" fill="#000"/>
  </g>
</svg>
