<?xml version="1.0" standalone="no"?><!DOCTYPE svg PUBLIC "-//W3C//DTD SVG 1.1//EN" "http://www.w3.org/Graphics/SVG/1.1/DTD/svg11.dtd"><svg t="1761535306234" class="icon" viewBox="0 0 1024 1024" version="1.1" xmlns="http://www.w3.org/2000/svg" p-id="4658" xmlns:xlink="http://www.w3.org/1999/xlink" width="200" height="200"><path d="M874.4448 514.4832c0-206.592-161.4464-374.0416-360.6272-374.0416-199.1552 0-360.6016 167.4624-360.6016 374.0416 0 206.592 161.4464 374.0544 360.6016 374.0544 199.168 0 360.6272-167.4752 360.6272-374.0544z m44.928 0c0 232.32-181.568 420.6336-405.5552 420.6336-223.9616 0-405.5168-188.3264-405.5168-420.6336 0-232.32 181.5552-420.6336 405.5168-420.6336 223.9872 0 405.5424 188.3264 405.5424 420.6336z" fill="#484848" p-id="4659"></path><path d="M679.5136 514.432c0-208.192-76.6464-374.0928-161.152-374.0928-84.5056 0-161.152 165.888-161.152 374.0928s76.6464 374.0928 161.152 374.0928c84.5056 0 161.152-165.888 161.152-374.0928z m44.9152 0c0 230.7584-87.7568 420.6848-206.0672 420.6848S312.2944 745.1904 312.2944 514.432c0-230.7456 87.7568-420.672 206.08-420.672 118.2976 0 206.0544 189.9264 206.0544 420.672z" fill="#484848" p-id="4660"></path><path d="M130.752 537.7792c-12.4032 0-22.4512-10.4192-22.4512-23.296 0-12.864 10.048-23.296 22.4512-23.296h766.1568c12.4032 0 22.4512 10.432 22.4512 23.296 0 12.8768-10.048 23.296-22.4512 23.296H130.752z" fill="#484848" p-id="4661"></path><path d="M536.2816 911.8208c0 12.864-10.048 23.296-22.4512 23.296-12.416 0-22.464-10.432-22.464-23.296V117.1456c0-12.864 10.0608-23.296 22.464-23.296 12.4032 0 22.4512 10.432 22.4512 23.296v794.6752z" fill="#484848" p-id="4662"></path><path d="M795.5968 240.1664c10.4192-6.976 24.32-3.8784 31.04 6.9376 6.7328 10.8032 3.7376 25.216-6.6816 32.2048-78.912 52.8384-188.7616 83.1744-306.1376 83.1744-117.376 0-227.2256-30.336-306.1376-83.2-10.4192-6.976-13.4016-21.3888-6.6816-32.192 6.7328-10.816 20.6336-13.9136 31.0528-6.9376 71.2704 47.744 172.672 75.7376 281.7664 75.7376 109.1072 0 210.496-27.9936 281.7792-75.7248zM819.968 749.6704c10.4064 6.976 13.4016 21.3888 6.6688 32.2048-6.72 10.8032-20.6208 13.9136-31.04 6.9248-71.2832-47.7184-172.672-75.712-281.7792-75.712-109.0944 0-210.496 27.9936-281.7664 75.7248-10.4192 6.976-24.32 3.8784-31.0528-6.9376-6.72-10.8032-3.7376-25.216 6.6944-32.2048 78.8992-52.8384 188.7616-83.1744 306.1248-83.1744 117.376 0 227.2256 30.336 306.1376 83.1744z" fill="#484848" p-id="4663"></path></svg>