<?xml version="1.0" standalone="no"?><!DOCTYPE svg PUBLIC "-//W3C//DTD SVG 1.1//EN" "http://www.w3.org/Graphics/SVG/1.1/DTD/svg11.dtd"><svg t="1764133540604" class="icon" viewBox="0 0 1024 1024" version="1.1" xmlns="http://www.w3.org/2000/svg" p-id="9735" xmlns:xlink="http://www.w3.org/1999/xlink" width="200" height="200"><path d="M512 56.888889a455.111111 455.111111 0 1 0 455.111111 455.111111 455.111111 455.111111 0 0 0-455.111111-455.111111zM328.248889 633.173333H227.555556a52.906667 52.906667 0 0 1 38.684444-50.631111c7.964444 0 34.702222-5.12 38.115556-14.222222a50.631111 50.631111 0 0 0 0-19.911111 68.835556 68.835556 0 0 1-40.96-9.102222s4.551111-10.808889 5.688888-14.791111A73.955556 73.955556 0 0 0 273.635556 512a208.213333 208.213333 0 0 0 0-35.271111A105.244444 105.244444 0 0 1 284.444444 413.013333a56.888889 56.888889 0 0 1 48.355556-22.755555 56.888889 56.888889 0 0 1 60.302222 46.648889 493.226667 493.226667 0 0 1 0 61.44 85.902222 85.902222 0 0 0 6.826667 30.151111c0 2.844444 6.826667 8.533333 3.413333 10.808889L398.222222 543.288889a89.884444 89.884444 0 0 1-21.617778 5.12h-10.808888c-1.137778 0 0 11.946667 0 14.222222a7.964444 7.964444 0 0 0 6.257777 8.533333c7.395556 2.844444 25.031111 3.982222 30.151111 10.808889s0 5.688889 0 6.257778a80.213333 80.213333 0 0 0-27.306666 5.688889 113.777778 113.777778 0 0 0-30.72 23.893333s-14.222222 15.36-15.928889 15.36z m6.826667 60.871111a84.764444 84.764444 0 0 1 34.133333-68.266666 145.635556 145.635556 0 0 1 63.146667-21.048889c8.533333 0 29.582222-5.688889 32.426666-15.36a125.724444 125.724444 0 0 0 0-30.151111c0-3.413333 0-3.413333-3.413333-6.257778A46.08 46.08 0 0 1 455.111111 534.186667a179.768889 179.768889 0 0 1-5.12-30.72c-11.377778 3.413333-13.084444-19.911111-15.36-26.737778s-7.964444-30.72 4.551111-27.306667a62.577778 62.577778 0 0 1-5.688889-22.755555 104.675556 104.675556 0 0 1 3.413334-50.062223 80.782222 80.782222 0 0 1 80.782222-47.786666 78.506667 78.506667 0 0 1 75.093333 52.337778 113.777778 113.777778 0 0 1 0 50.062222 53.475556 53.475556 0 0 1-5.12 18.773333c13.084444-3.982222 4.551111 25.6 3.413334 30.151111s-3.413333 26.737778-14.222223 23.324445a96.142222 96.142222 0 0 1-8.533333 39.822222c0 2.844444-9.671111 9.671111-9.671111 13.084444v14.222223a71.68 71.68 0 0 0 0 18.773333c0 5.688889 12.515556 7.964444 17.635555 9.671111 17.066667 5.688889 35.84 6.257778 52.906667 12.515556a86.471111 86.471111 0 0 1 56.888889 82.488888z m358.968888-60.871111a56.888889 56.888889 0 0 0-20.48-25.031111 79.075556 79.075556 0 0 0-34.702222-17.635555c-3.982222 0-20.48 0-16.497778-6.826667s11.377778-5.688889 16.497778-7.395556 18.773333-3.413333 19.911111-9.671111a63.146667 63.146667 0 0 0 0-17.635555 113.777778 113.777778 0 0 1-22.755555-2.844445 62.008889 62.008889 0 0 1-14.222222-5.12c-7.964444-3.982222-3.413333-6.257778 0-13.084444 18.204444-40.96-13.084444-113.777778 40.391111-133.688889a72.817778 72.817778 0 0 1 62.008889 3.982222 64.853333 64.853333 0 0 1 25.6 56.888889 156.444444 156.444444 0 0 0 8.533333 77.937778c0 4.551111 4.551111 4.551111 0 7.964444l-6.826667 2.844445a78.506667 78.506667 0 0 1-15.36 3.413333 80.213333 80.213333 0 0 1-17.635555 0v21.048889c0 4.551111 27.306667 9.671111 37.546666 13.084444a53.475556 53.475556 0 0 1 39.253334 51.2z" fill="#4C4C4C" p-id="9736"></path><path d="M368.64 596.195556zM368.64 596.195556zM369.777778 595.626667z" fill="#FFFFFF" p-id="9737"></path></svg>