<?xml version="1.0" standalone="no"?><!DOCTYPE svg PUBLIC "-//W3C//DTD SVG 1.1//EN" "http://www.w3.org/Graphics/SVG/1.1/DTD/svg11.dtd"><svg t="1764133453538" class="icon" viewBox="0 0 1024 1024" version="1.1" xmlns="http://www.w3.org/2000/svg" p-id="5210" xmlns:xlink="http://www.w3.org/1999/xlink" width="200" height="200"><path d="M512 0c282.624 0 512 229.376 512 512s-229.376 512-512 512S0 794.624 0 512 229.376 0 512 0z m62.464 552.448H449.536c-105.984 0-192 85.504-193.536 192v12.288c0 39.424 72.704 43.008 167.424 43.008h177.152c94.72-0.512 167.424-3.584 167.424-43.008v-12.288c-1.536-106.496-87.552-192-193.536-192zM505.856 224.256c-82.944 0-150.016 66.56-150.016 148.992S422.912 522.24 505.856 522.24s150.016-66.56 150.016-148.992S588.8 224.256 505.856 224.256z" fill="#C9CDD4" p-id="5211"></path></svg>