<svg width="181" height="104" viewBox="0 0 181 104" fill="none" xmlns="http://www.w3.org/2000/svg">
<mask id="mask0_1507_34610" style="mask-type:alpha" maskUnits="userSpaceOnUse" x="0" y="0" width="181" height="104">
<rect x="0.8125" width="180" height="104" fill="#D9D9D9"/>
</mask>
<g mask="url(#mask0_1507_34610)">
<path d="M2.19972 76.4265C4.68806 89.9202 38.7826 98.4222 80.5622 100.376C121.123 102.272 158.488 97.6877 174.607 85.6535C196.342 69.4265 142.651 49.4232 87.4411 49.8394C40.8754 50.1905 -0.54767 61.528 2.19972 76.4265Z" fill="url(#paint0_linear_1507_34610)"/>
<path d="M122.293 72.4201L138.113 81.5378C138.113 81.5378 138.113 74.5973 138.113 72.4201H140.86C143.127 72.4201 144.965 70.5821 144.965 68.3148V38.1941C144.965 36.8495 144.483 35.6985 143.52 34.741C142.557 33.7834 141.399 33.3047 140.047 33.3047H100.702C99.3494 33.3047 98.1916 33.7834 97.2284 34.741C96.2653 35.6985 95.7838 36.8495 95.7838 38.1941V67.5307C95.7838 68.8753 96.2653 70.0263 97.2284 70.9838C98.1916 71.9413 99.3494 72.4201 100.702 72.4201H122.293Z" fill="#66BFFF" fill-opacity="0.9"/>
<path d="M73.3638 33.7536C73.3416 33.9976 73.2972 34.2416 73.1305 34.4523C72.9749 34.6519 72.8749 34.8737 72.7304 35.0844C72.5748 35.2952 72.4193 35.5059 72.2303 35.6833C71.9525 35.9606 71.7414 36.2711 71.5525 36.6149C71.4858 36.7258 71.4302 36.8478 71.3525 36.9587C71.1747 37.2581 71.008 37.5575 70.8302 37.857C70.8079 37.8902 70.7857 37.9235 70.7635 37.9679C70.1634 37.6463 69.5633 37.3357 68.9521 37.0141C69.0522 36.881 69.1411 36.7591 69.23 36.6371C69.5189 36.2156 69.7967 35.7942 70.0967 35.3839C70.2745 35.1399 70.3968 34.8848 70.4412 34.5854C70.4968 34.1862 70.5301 33.7758 70.5746 33.3766C70.5968 33.1991 70.6968 33.055 70.8413 32.933C71.008 32.7888 71.1524 32.6224 71.308 32.4783C71.3525 32.4339 71.408 32.4117 71.4525 32.3674C71.4747 32.3452 71.4969 32.323 71.508 32.3008C71.5969 32.1456 71.6747 31.9792 71.7636 31.824L72.0748 31.3138C72.2081 31.1142 72.3304 30.9146 72.4637 30.726C72.5637 30.593 72.6637 30.4488 72.786 30.3379C72.9082 30.227 72.9971 30.227 73.1082 30.3046C73.1971 30.3712 73.2305 30.5153 73.1638 30.6373C72.9971 30.9589 72.8304 31.2805 72.6304 31.5689C72.6304 31.5689 72.3526 32.1345 72.3081 32.2676C72.3304 32.2565 72.3526 32.2565 72.3637 32.2454C72.4081 32.2121 72.4526 32.1788 72.497 32.1567C72.7415 32.0458 72.9415 32.1678 72.9415 32.445C72.9415 32.5226 72.9527 32.567 73.0416 32.6003C73.2305 32.6557 73.2972 32.811 73.2416 33.0439C73.2194 33.1326 73.1971 33.2102 73.1749 33.2989C73.3861 33.3877 73.386 33.5762 73.3638 33.7536Z" fill="url(#paint1_linear_1507_34610)"/>
<path d="M71.7728 36.5314L70.8171 38.195C70.5171 38.7162 69.8614 38.8936 69.3391 38.6053L69.2391 38.5498C68.7168 38.2504 68.539 37.5961 68.8391 37.0749L69.7948 35.4113C70.0948 34.8901 70.7504 34.7127 71.2727 35.001L71.3727 35.0565C71.8839 35.3559 72.0617 36.0213 71.7728 36.5314Z" fill="#F0F2FC"/>
<path d="M66.6726 43.8098C67.206 43.8098 67.7061 43.5437 68.0061 43.1L71.3399 38.165C71.84 37.433 71.6399 36.4349 70.9065 35.9469C70.1731 35.4479 69.1729 35.6475 68.6729 36.3795L66.7504 39.2185L63.2166 33.252C62.761 32.4868 61.7831 32.2318 61.0163 32.6865C60.2496 33.1411 59.994 34.1171 60.4496 34.8823L65.2724 43.0335C65.5503 43.5104 66.0503 43.7987 66.6059 43.8209C66.6393 43.8098 66.6504 43.8098 66.6726 43.8098Z" fill="url(#paint2_linear_1507_34610)"/>
<g filter="url(#filter0_bdi_1507_34610)">
<path d="M117.026 5.78906H75.8843C73.2073 5.78906 71.0371 8.35226 71.0371 11.5141V59.4873C71.0371 62.6492 73.2073 65.2124 75.8843 65.2124H117.026C119.703 65.2124 121.873 62.6492 121.873 59.4873V11.5141C121.873 8.35226 119.703 5.78906 117.026 5.78906Z" fill="#007FFF" fill-opacity="0.4" shape-rendering="crispEdges"/>
<path d="M75.8843 6.16823H117.026C119.436 6.16823 121.494 8.50005 121.494 11.5141V59.4873C121.494 62.5014 119.436 64.8332 117.026 64.8332H75.8843C73.4734 64.8332 71.4163 62.5014 71.4163 59.4873V11.5141C71.4163 8.50005 73.4734 6.16823 75.8843 6.16823Z" stroke="white" stroke-opacity="0.5" stroke-width="0.758331" shape-rendering="crispEdges"/>
</g>
<g filter="url(#filter1_bdi_1507_34610)">
<rect x="83.043" y="18.9531" width="26.8233" height="4.13595" rx="2.06798" fill="white" fill-opacity="0.5" shape-rendering="crispEdges"/>
<rect x="83.1716" y="19.0817" width="26.5661" height="3.87879" rx="1.93939" stroke="white" stroke-width="0.257165" shape-rendering="crispEdges"/>
</g>
<g filter="url(#filter2_bdi_1507_34610)">
<rect x="83.043" y="31.3672" width="26.8233" height="4.13595" rx="2.06798" fill="white" fill-opacity="0.5" shape-rendering="crispEdges"/>
<rect x="83.1716" y="31.4958" width="26.5661" height="3.87879" rx="1.93939" stroke="white" stroke-width="0.257165" shape-rendering="crispEdges"/>
</g>
<g filter="url(#filter3_bdi_1507_34610)">
<rect x="83.043" y="45.1055" width="13.5913" height="4.13595" rx="2.06798" fill="white" fill-opacity="0.5" shape-rendering="crispEdges"/>
<rect x="83.1716" y="45.2341" width="13.3341" height="3.87879" rx="1.93939" stroke="white" stroke-width="0.257165" shape-rendering="crispEdges"/>
</g>
<path d="M54.2513 82.5827L56.7773 82.5112C56.8364 83.3807 55.0784 85.2965 57.4026 85.7618C60.2364 86.3375 61.3934 86.5362 61.8617 87.3144C61.9106 87.4067 61.7669 87.5057 61.5741 87.5125L53.1549 87.7564C52.9796 87.7625 52.8631 87.6897 52.903 87.6028C53.1238 87.1935 54.5355 83.3075 54.2513 82.5827Z" fill="#2F2E41"/>
<path d="M40.6241 82.8687L43.1526 82.8142C43.1942 83.6843 41.4174 85.5922 43.709 86.0758C46.5266 86.6606 47.6862 86.8763 48.1369 87.6551C48.1859 87.7474 48.0421 87.8464 47.8493 87.8532L39.44 88.0454C39.2648 88.0516 39.1482 87.9787 39.1881 87.8919C39.4077 87.4741 40.8907 83.5941 40.6241 82.8687Z" fill="#2F2E41"/>
<path d="M57.0832 83.3236C56.9758 83.4546 55.2772 83.5384 54.242 83.5726C53.7864 83.5922 53.4521 83.5962 53.4521 83.5962L52.5304 75.2485C52.492 74.6398 52.4198 74.043 52.3113 73.4373C51.818 70.6698 52.7974 59.3987 52.7974 59.3987L50.8998 59.4385C50.8998 59.4385 47.7932 68.7073 47.1521 71.2712C47.0438 71.6863 46.8979 72.082 46.7019 72.5009C46.5085 72.9407 46.4251 73.2705 46.3997 73.9346C46.3761 74.9038 43.5522 84.0341 43.5522 84.0341L39.9883 83.988C39.9883 83.988 41.4827 73.0419 42.0503 70.7443C42.5507 68.7652 43.4649 58.2651 43.7125 55.3604C43.7249 55.3178 43.7199 55.2759 43.7148 55.234C43.7555 54.8429 43.7627 54.611 43.7627 54.611L43.9918 54.6117L59.6667 54.4401C59.6667 54.4401 59.6631 54.556 59.6359 54.7677C59.6285 54.8522 59.6223 54.9471 59.6175 55.0526L59.6187 55.0631C59.6213 55.084 59.6075 55.1162 59.6101 55.1371C59.5854 55.3697 59.5657 55.6442 59.5336 55.9613C59.2624 58.9617 58.702 65.5422 58.6146 67.4403C58.548 69.9478 57.237 83.1381 57.0832 83.3236Z" fill="#2E3841"/>
<path d="M46.7035 72.5143C46.8832 72.1066 47.0454 71.6997 47.1537 71.2846C47.7562 68.8381 50.6408 60.2104 50.8838 59.4527L49.0788 59.5306C48.5339 60.1224 48.073 60.8264 47.8886 61.4868C47.3867 63.308 47.0775 65.1209 46.7871 66.9436C45.7074 73.5991 44.1028 77.3728 43.023 84.0283L43.5526 84.037C43.5526 84.037 46.3764 74.9067 46.4001 73.9375C46.4267 73.2839 46.5101 72.9541 46.7035 72.5143Z" fill="#222B33"/>
<path d="M53.3347 71.2677C52.9901 67.3993 52.4698 63.2438 54.133 59.3729L52.7811 59.4102C52.6677 60.6569 51.822 70.8489 52.295 73.4489C52.4022 74.0441 52.4932 74.6506 52.5141 75.26L53.4358 83.6077C53.4358 83.6077 53.7701 83.6038 54.2257 83.5841C54.3513 78.5062 53.7999 76.2779 53.3347 71.2677Z" fill="#222B33"/>
<path d="M59.5916 55.9175C58.4039 56.2215 56.3367 56.923 52.7539 56.8493C49.9836 56.7988 45.3946 56.8936 43.7286 55.8213C43.741 55.765 43.736 55.7097 43.7309 55.6545C43.7717 55.138 43.7789 54.8319 43.7789 54.8319L44.0079 54.8327C45.6603 55.9474 50.244 55.6028 52.9968 55.6543C56.5257 55.7171 58.4432 55.4966 59.652 55.0386C59.652 55.0386 59.652 55.0386 59.6695 55.0376C59.6646 55.1769 59.6397 55.2895 59.6336 55.4149L59.6349 55.4287C59.6287 55.5541 59.6076 55.7082 59.5916 55.9175Z" fill="#005FBD"/>
<path d="M59.7003 54.7734C59.4505 56.4691 43.5939 56.442 43.845 54.7602C45.437 43.8722 42.4948 36.3694 44.7023 34.5065C44.9474 34.298 45.8036 33.068 49.2899 31.8966C49.4263 31.8471 49.5627 31.7976 49.7179 31.761C49.7692 31.7442 49.8205 31.7274 49.8718 31.7105C49.9744 31.6769 50.0783 31.6571 50.1822 31.6373C50.1822 31.6373 50.1997 31.6363 50.2172 31.6353C50.8392 31.5025 51.465 31.4113 52.0921 31.3338C52.6153 31.2762 53.1398 31.2324 53.6492 31.2173C53.7193 31.2133 53.7894 31.2093 53.8595 31.2053C53.9997 31.1973 54.1236 31.2041 54.2638 31.1961C54.369 31.1902 54.4754 31.198 54.5993 31.2048C55.0925 31.2045 55.5883 31.2318 56.0853 31.273C56.2456 31.2916 56.4058 31.3103 56.5836 31.3279C56.7263 31.3476 56.869 31.3672 56.9942 31.3879C58.4228 31.5983 59.7664 32.0358 60.6335 32.8479C61.6231 33.6579 60.867 36.6406 60.7473 39.209C60.5295 43.8816 59.9284 49.694 59.7003 54.7734Z" fill="url(#paint3_linear_1507_34610)"/>
<path d="M56.9936 31.4042C56.8263 31.8862 56.4275 32.3397 55.8095 32.7085C55.0589 33.1681 54.1003 33.4729 53.0852 33.5447C52.9976 33.5497 52.8924 33.5557 52.7873 33.5617C50.9084 33.6271 49.4881 32.9299 49.288 31.8991C49.4244 31.8496 49.5608 31.8002 49.716 31.7635C49.7673 31.7467 49.8186 31.7299 49.8699 31.7131C49.9725 31.6794 50.0764 31.6596 50.1803 31.6398C50.1803 31.6398 50.1978 31.6388 50.2153 31.6378C50.8373 31.5051 51.4631 31.4138 52.0902 31.3364C52.6847 31.2886 53.2806 31.2546 53.8589 31.2216C53.9991 31.2136 54.123 31.2205 54.2632 31.2125C54.3683 31.2065 54.4747 31.2143 54.5987 31.2211C55.0919 31.2208 55.5876 31.2481 56.0847 31.2893C56.2449 31.308 56.4052 31.3266 56.5829 31.3443C56.7257 31.3639 56.8684 31.3836 56.9936 31.4042Z" fill="white"/>
<path d="M56.5815 31.3363C56.2608 32.2578 54.8196 33.0626 53.1047 33.1881C51.321 33.3315 49.8708 32.6916 49.7146 31.7556C49.7659 31.7387 49.8172 31.7219 49.8685 31.7051C49.9711 31.6715 50.075 31.6516 50.1788 31.6318C50.1788 31.6318 50.1964 31.6308 50.2139 31.6298C50.4905 31.5724 50.7508 31.5297 51.0287 31.4861L51.5727 26.2719C51.6532 25.4197 52.5913 24.6992 53.6628 24.6659C54.1898 24.6497 54.6619 24.8035 54.9676 25.064C55.2908 25.3234 55.4665 25.7025 55.4168 26.1222L54.8627 31.2259C55.2683 31.2305 55.6751 31.249 56.0845 31.2952C56.2435 31.3 56.4213 31.3177 56.5815 31.3363Z" fill="url(#paint4_linear_1507_34610)"/>
<path d="M57.0277 22.9097L57.2294 26.6501C57.3174 28.1875 55.7955 29.65 53.8292 29.9149C51.8804 30.1789 50.2182 29.1481 50.1477 27.6096L49.9472 23.8831C49.8592 22.3456 51.3811 20.8832 53.3474 20.6182C54.3212 20.4793 55.2202 20.6782 55.8929 21.0984C56.5643 21.5048 56.9931 22.1474 57.0277 22.9097Z" fill="url(#paint5_linear_1507_34610)"/>
<path d="M52.8389 28.3789C52.8868 28.7095 53.2789 28.9511 53.7521 28.9241C54.2253 28.8971 54.5693 28.6136 54.5564 28.281L52.8389 28.3789Z" fill="white"/>
<path d="M50.3844 26.3557C50.0375 26.4172 49.7367 26.212 49.541 26.0008C49.2075 25.6307 49.0066 25.1697 48.9285 24.7017C48.8932 24.5092 48.9231 24.2574 49.1396 24.1199C49.2547 24.03 49.4301 24.02 49.5917 24.0525C49.7358 24.086 49.8486 24.1629 49.9438 24.2409C50.2296 24.4747 50.3841 24.8133 50.3819 25.1747L50.3844 26.3557Z" fill="url(#paint6_linear_1507_34610)"/>
<path d="M58.5902 21.7393C56.9989 22.636 51.2565 22.2547 51.1488 22.233C51.1312 22.234 51.1338 22.2617 51.1188 22.2903C51.0303 22.6705 50.9599 24.7867 50.6724 25.1088C50.3711 25.4734 50.4416 24.7051 50.3551 24.5294C50.2847 24.3389 50.0006 23.16 50.0006 23.16C50.0006 23.16 49.9675 22.6061 49.6953 22.1352C49.4057 21.6654 48.8825 20.5696 49.6377 19.7762C50.393 18.9827 51.2534 19.3367 51.2534 19.3367C51.2534 19.3367 53.4169 17.3791 55.5363 17.4389C57.6557 17.4987 56.6544 18.8759 56.6544 18.8759C56.6544 18.8759 57.7557 18.5908 58.5031 18.6733C58.895 18.7204 59.1893 18.8565 59.2184 19.1744C59.236 19.1734 60.1816 20.8426 58.5902 21.7393Z" fill="#2F2E41"/>
<path d="M58.5991 21.7318C57.0078 22.6284 51.2653 22.2471 51.1577 22.2255C51.1401 22.2265 51.1427 22.2541 51.1277 22.2827C51.0901 22.2571 51.07 22.2304 51.05 22.2038C51.1976 22.0842 51.5193 22.1354 51.6946 22.1254C51.9575 22.1104 52.2203 22.0954 52.4657 22.0814C52.9901 22.0376 53.5133 21.98 54.0152 21.8819C55.0878 21.6679 56.1426 21.2604 56.9643 20.616C57.671 20.0616 58.1372 19.3819 58.5133 18.6795C58.9052 18.7267 59.1995 18.8628 59.2286 19.1807C59.2449 19.1659 60.1905 20.8351 58.5991 21.7318Z" fill="#2F2E41"/>
<path d="M55.7451 24.3087C55.4512 24.5615 54.9906 24.7267 54.6025 24.721C54.5149 24.726 54.4923 24.6718 54.5573 24.6125C54.7049 24.493 54.8889 24.3853 55.0941 24.318C55.2994 24.2507 55.5071 24.2111 55.6999 24.2001C55.7876 24.1951 55.8101 24.2494 55.7451 24.3087Z" fill="#2F2E41"/>
<path d="M53.1199 24.7022C52.6868 24.7826 52.1872 24.7136 51.8377 24.5525C51.7638 24.515 51.7763 24.4586 51.8801 24.4387C52.0879 24.399 52.3346 24.3989 52.5487 24.4284C52.7803 24.457 52.9795 24.5153 53.1448 24.5894C53.2363 24.626 53.2238 24.6824 53.1199 24.7022Z" fill="#2F2E41"/>
<path d="M53.1583 26.0639C53.1509 26.1753 53.0372 26.2789 52.8971 26.2869C52.7571 26.2949 52.6445 26.2181 52.6519 26.1067C52.6592 25.9953 52.7729 25.8917 52.913 25.8837C53.0693 25.8609 53.1656 25.9525 53.1583 26.0639Z" fill="#2F2E41"/>
<path d="M55.6816 25.9064C55.6742 26.0178 55.5605 26.1214 55.4204 26.1293C55.2804 26.1373 55.1678 26.0605 55.1752 25.9491C55.1826 25.8377 55.2962 25.7341 55.4363 25.7261C55.5938 25.7171 55.689 25.7949 55.6816 25.9064Z" fill="#2F2E41"/>
<path d="M55.477 26.984C54.7763 27.0239 54.2454 26.6097 54.2661 26.0669C54.303 25.5092 54.8918 25.0173 55.5924 24.9773C56.2931 24.9374 56.824 25.3516 56.8033 25.8945C56.7664 26.4521 56.1776 26.9441 55.477 26.984ZM55.5726 25.1451C54.9946 25.1781 54.5045 25.5949 54.4762 26.0549C54.448 26.5149 54.9025 26.864 55.4793 26.8172C56.0573 26.7842 56.5473 26.3674 56.5756 25.9074C56.6039 25.4475 56.1681 25.1112 55.5726 25.1451Z" fill="white"/>
<path d="M52.5893 27.1754C51.8886 27.2153 51.3577 26.8012 51.3784 26.2583C51.3991 25.7154 52.0041 25.2087 52.7047 25.1687C53.4054 25.1288 53.9363 25.543 53.9156 26.0859C53.8787 26.6435 53.2899 27.1355 52.5893 27.1754ZM52.6849 25.3365C52.1069 25.3695 51.6168 25.7863 51.5886 26.2463C51.5603 26.7063 52.0148 27.0554 52.5916 27.0086C53.1696 26.9756 53.6596 26.5588 53.6879 26.0988C53.7162 25.6389 53.2805 25.3026 52.6849 25.3365Z" fill="white"/>
<path d="M53.8328 26.1589L53.6987 26.0412C53.8638 25.9204 54.0165 25.856 54.1404 25.8628C54.2644 25.8697 54.3558 25.9063 54.4524 25.9982L54.2684 26.1062C54.2108 26.0538 54.1732 26.0281 54.1031 26.0321C54.0505 26.0351 53.9479 26.0688 53.8328 26.1589Z" fill="white"/>
<path d="M67.2989 47.4873C67.3829 47.461 67.467 47.4347 67.5511 47.4216C67.8034 47.3689 68.0388 47.3821 68.2911 47.4084C68.5938 47.4479 68.846 47.3163 69.031 47.1453C69.0815 47.1058 69.1151 47.0137 69.0983 46.9611C69.0815 46.9216 68.9637 46.8953 68.8965 46.8822C68.7451 46.8558 68.5769 46.869 68.4592 46.8164C68.022 46.6322 67.5679 46.7769 67.1307 46.7506C66.6766 46.7111 66.2394 46.8427 65.8021 46.9085C65.5499 46.9479 65.2976 47.0137 65.0454 47.0795C64.8099 47.1321 64.5745 47.1584 64.3222 47.119C63.8345 47.0532 63.33 47.0137 62.8423 46.9348C62.2874 46.8427 61.7492 46.698 61.1606 46.5664C60.6057 47.2505 60.0339 47.9741 59.4453 48.6977C59.6303 48.7109 59.7985 48.7372 59.9666 48.7503C60.8075 48.8161 61.6652 48.8556 62.506 48.9345C63.0442 48.9872 63.5487 49.1582 64.0027 49.395C64.3222 49.566 64.6081 49.7634 64.9277 49.9081C65.2135 50.0397 65.5499 50.1318 65.8694 50.2239C66.1889 50.3291 66.4916 50.4212 66.8112 50.5133C67.1307 50.6054 67.4334 50.7106 67.7697 50.7764C68.0388 50.829 68.392 50.7896 68.5938 50.5791C68.6778 50.5001 68.8628 50.487 68.9974 50.4475C69.0983 50.4212 69.216 50.408 69.3169 50.3949C69.4514 50.3817 69.5355 50.3291 69.5691 50.2239C69.6028 50.1186 69.67 50.066 69.8382 50.066C70.1746 50.066 70.4436 49.9344 70.6791 49.7634C70.7127 49.7371 70.7968 49.7239 70.8472 49.7108C71.049 49.6713 71.0995 49.5397 70.965 49.4213C70.7968 49.2503 70.5445 49.1977 70.2755 49.1977C70.225 49.1977 70.1746 49.2108 70.1409 49.1977C69.8382 49.0924 69.5355 48.9872 69.2328 48.8688C69.0983 48.8161 69.0142 48.7109 68.8965 48.6319C68.6442 48.4609 68.392 48.2899 68.1397 48.1188C67.8874 47.8952 67.6016 47.6978 67.2989 47.4873Z" fill="url(#paint7_linear_1507_34610)"/>
<path d="M59.4975 46.1327L62.3395 46.5931C63.2308 46.7378 63.8026 47.422 63.6176 48.1061L63.584 48.2377C63.399 48.9349 62.5245 49.3823 61.65 49.2375L58.808 48.7771C57.9167 48.6324 57.3449 47.9614 57.5299 47.2641L57.5635 47.1325C57.7317 46.4353 58.6062 45.9879 59.4975 46.1327Z" fill="#F0F2FC"/>
<path d="M62.5055 48.2434C62.2197 48.8091 61.6142 49.2169 60.9247 49.388C60.4034 49.5064 59.8485 49.5064 59.2935 49.3354L49.9096 46.4278C49.2706 46.2305 48.7829 45.8358 48.5138 45.349L44.1246 36.7711C43.62 35.7844 44.2423 34.653 45.5036 34.2583C46.7648 33.8636 48.2111 34.3504 48.7156 35.3371L52.7012 43.1387L61.0929 45.7305C62.3878 46.1252 63.0101 47.2435 62.5055 48.2434Z" fill="url(#paint8_linear_1507_34610)"/>
<path d="M47.7698 34.0738C48.2441 34.4344 48.5861 34.8785 48.9153 35.3293C49.2317 35.7868 49.5011 36.2544 49.7449 36.7353C49.9887 37.2162 50.2112 37.6938 50.4208 38.1781C50.6305 38.6624 50.8273 39.1534 50.99 39.6477C50.7206 39.1802 50.464 38.7059 50.2287 38.235L49.493 36.8089C49.2578 36.338 49.0012 35.8638 48.7318 35.3962C48.4367 34.942 48.1545 34.4812 47.7698 34.0738Z" fill="#0080FF"/>
<path d="M60.8886 33.0711C61.1212 33.5554 61.1885 34.0712 61.2405 34.5888C61.2773 35.1082 61.2661 35.621 61.2245 36.1374C61.1828 36.6537 61.1237 37.16 61.0492 37.668C60.9748 38.176 60.8852 38.6858 60.7628 39.1872C60.774 38.6744 60.8004 38.1598 60.8444 37.6554L60.9564 36.12C61.0003 35.6155 61.0267 35.1009 61.0379 34.5881C61.0186 34.0789 61.0146 33.5679 60.8886 33.0711Z" fill="#0080FF"/>
</g>
<defs>
<filter id="filter0_bdi_1507_34610" x="55.8705" y="-9.37755" width="81.1692" height="89.7551" filterUnits="userSpaceOnUse" color-interpolation-filters="sRGB">
<feFlood flood-opacity="0" result="BackgroundImageFix"/>
<feGaussianBlur in="BackgroundImageFix" stdDeviation="7.58331"/>
<feComposite in2="SourceAlpha" operator="in" result="effect1_backgroundBlur_1507_34610"/>
<feColorMatrix in="SourceAlpha" type="matrix" values="0 0 0 0 0 0 0 0 0 0 0 0 0 0 0 0 0 0 127 0" result="hardAlpha"/>
<feOffset dy="3.79165"/>
<feGaussianBlur stdDeviation="5.68748"/>
<feComposite in2="hardAlpha" operator="out"/>
<feColorMatrix type="matrix" values="0 0 0 0 0 0 0 0 0 0.498039 0 0 0 0 1 0 0 0 0.24 0"/>
<feBlend mode="normal" in2="effect1_backgroundBlur_1507_34610" result="effect2_dropShadow_1507_34610"/>
<feBlend mode="normal" in="SourceGraphic" in2="effect2_dropShadow_1507_34610" result="shape"/>
<feColorMatrix in="SourceAlpha" type="matrix" values="0 0 0 0 0 0 0 0 0 0 0 0 0 0 0 0 0 0 127 0" result="hardAlpha"/>
<feOffset/>
<feGaussianBlur stdDeviation="0.947913"/>
<feComposite in2="hardAlpha" operator="arithmetic" k2="-1" k3="1"/>
<feColorMatrix type="matrix" values="0 0 0 0 0 0 0 0 0 0.498039 0 0 0 0 1 0 0 0 0.16 0"/>
<feBlend mode="normal" in2="shape" result="effect3_innerShadow_1507_34610"/>
</filter>
<filter id="filter1_bdi_1507_34610" x="76.871" y="12.7812" width="39.1672" height="16.4807" filterUnits="userSpaceOnUse" color-interpolation-filters="sRGB">
<feFlood flood-opacity="0" result="BackgroundImageFix"/>
<feGaussianBlur in="BackgroundImageFix" stdDeviation="3.08598"/>
<feComposite in2="SourceAlpha" operator="in" result="effect1_backgroundBlur_1507_34610"/>
<feColorMatrix in="SourceAlpha" type="matrix" values="0 0 0 0 0 0 0 0 0 0 0 0 0 0 0 0 0 0 127 0" result="hardAlpha"/>
<feOffset dy="1.02866"/>
<feGaussianBlur stdDeviation="0.514331"/>
<feComposite in2="hardAlpha" operator="out"/>
<feColorMatrix type="matrix" values="0 0 0 0 0 0 0 0 0 0.498039 0 0 0 0 1 0 0 0 0.12 0"/>
<feBlend mode="normal" in2="effect1_backgroundBlur_1507_34610" result="effect2_dropShadow_1507_34610"/>
<feBlend mode="normal" in="SourceGraphic" in2="effect2_dropShadow_1507_34610" result="shape"/>
<feColorMatrix in="SourceAlpha" type="matrix" values="0 0 0 0 0 0 0 0 0 0 0 0 0 0 0 0 0 0 127 0" result="hardAlpha"/>
<feOffset/>
<feGaussianBlur stdDeviation="0.514331"/>
<feComposite in2="hardAlpha" operator="arithmetic" k2="-1" k3="1"/>
<feColorMatrix type="matrix" values="0 0 0 0 0 0 0 0 0 0.498039 0 0 0 0 1 0 0 0 0.12 0"/>
<feBlend mode="normal" in2="shape" result="effect3_innerShadow_1507_34610"/>
</filter>
<filter id="filter2_bdi_1507_34610" x="76.871" y="25.1952" width="39.1672" height="16.4807" filterUnits="userSpaceOnUse" color-interpolation-filters="sRGB">
<feFlood flood-opacity="0" result="BackgroundImageFix"/>
<feGaussianBlur in="BackgroundImageFix" stdDeviation="3.08598"/>
<feComposite in2="SourceAlpha" operator="in" result="effect1_backgroundBlur_1507_34610"/>
<feColorMatrix in="SourceAlpha" type="matrix" values="0 0 0 0 0 0 0 0 0 0 0 0 0 0 0 0 0 0 127 0" result="hardAlpha"/>
<feOffset dy="1.02866"/>
<feGaussianBlur stdDeviation="0.514331"/>
<feComposite in2="hardAlpha" operator="out"/>
<feColorMatrix type="matrix" values="0 0 0 0 0 0 0 0 0 0.498039 0 0 0 0 1 0 0 0 0.12 0"/>
<feBlend mode="normal" in2="effect1_backgroundBlur_1507_34610" result="effect2_dropShadow_1507_34610"/>
<feBlend mode="normal" in="SourceGraphic" in2="effect2_dropShadow_1507_34610" result="shape"/>
<feColorMatrix in="SourceAlpha" type="matrix" values="0 0 0 0 0 0 0 0 0 0 0 0 0 0 0 0 0 0 127 0" result="hardAlpha"/>
<feOffset/>
<feGaussianBlur stdDeviation="0.514331"/>
<feComposite in2="hardAlpha" operator="arithmetic" k2="-1" k3="1"/>
<feColorMatrix type="matrix" values="0 0 0 0 0 0 0 0 0 0.498039 0 0 0 0 1 0 0 0 0.12 0"/>
<feBlend mode="normal" in2="shape" result="effect3_innerShadow_1507_34610"/>
</filter>
<filter id="filter3_bdi_1507_34610" x="76.871" y="38.9335" width="25.9348" height="16.4807" filterUnits="userSpaceOnUse" color-interpolation-filters="sRGB">
<feFlood flood-opacity="0" result="BackgroundImageFix"/>
<feGaussianBlur in="BackgroundImageFix" stdDeviation="3.08598"/>
<feComposite in2="SourceAlpha" operator="in" result="effect1_backgroundBlur_1507_34610"/>
<feColorMatrix in="SourceAlpha" type="matrix" values="0 0 0 0 0 0 0 0 0 0 0 0 0 0 0 0 0 0 127 0" result="hardAlpha"/>
<feOffset dy="1.02866"/>
<feGaussianBlur stdDeviation="0.514331"/>
<feComposite in2="hardAlpha" operator="out"/>
<feColorMatrix type="matrix" values="0 0 0 0 0 0 0 0 0 0.498039 0 0 0 0 1 0 0 0 0.12 0"/>
<feBlend mode="normal" in2="effect1_backgroundBlur_1507_34610" result="effect2_dropShadow_1507_34610"/>
<feBlend mode="normal" in="SourceGraphic" in2="effect2_dropShadow_1507_34610" result="shape"/>
<feColorMatrix in="SourceAlpha" type="matrix" values="0 0 0 0 0 0 0 0 0 0 0 0 0 0 0 0 0 0 127 0" result="hardAlpha"/>
<feOffset/>
<feGaussianBlur stdDeviation="0.514331"/>
<feComposite in2="hardAlpha" operator="arithmetic" k2="-1" k3="1"/>
<feColorMatrix type="matrix" values="0 0 0 0 0 0 0 0 0 0.498039 0 0 0 0 1 0 0 0 0.12 0"/>
<feBlend mode="normal" in2="shape" result="effect3_innerShadow_1507_34610"/>
</filter>
<linearGradient id="paint0_linear_1507_34610" x1="90.8594" y1="49.8357" x2="90.7669" y2="100.776" gradientUnits="userSpaceOnUse">
<stop stop-color="#DAE7F3"/>
<stop offset="1" stop-color="#DAE7F3" stop-opacity="0"/>
</linearGradient>
<linearGradient id="paint1_linear_1507_34610" x1="71.3355" y1="32.5516" x2="71.3879" y2="37.4892" gradientUnits="userSpaceOnUse">
<stop offset="0.0036036" stop-color="#FCC5B3"/>
<stop offset="1" stop-color="#FCAA8E"/>
</linearGradient>
<linearGradient id="paint2_linear_1507_34610" x1="66.6276" y1="33.4435" x2="66.8071" y2="43.3679" gradientUnits="userSpaceOnUse">
<stop stop-color="#66B3FF"/>
<stop offset="1" stop-color="#0080FF"/>
</linearGradient>
<linearGradient id="paint3_linear_1507_34610" x1="52.4655" y1="33.4238" x2="54.2146" y2="54.9984" gradientUnits="userSpaceOnUse">
<stop stop-color="#66B3FF"/>
<stop offset="1" stop-color="#0080FF"/>
</linearGradient>
<linearGradient id="paint4_linear_1507_34610" x1="53.0229" y1="27.2343" x2="53.3723" y2="32.6495" gradientUnits="userSpaceOnUse">
<stop offset="0.0036036" stop-color="#FCC5B3"/>
<stop offset="1" stop-color="#FCAA8E"/>
</linearGradient>
<linearGradient id="paint5_linear_1507_34610" x1="53.7006" y1="23.3717" x2="54.0872" y2="29.3359" gradientUnits="userSpaceOnUse">
<stop offset="0.0036036" stop-color="#FCC5B3"/>
<stop offset="1" stop-color="#FCAA8E"/>
</linearGradient>
<linearGradient id="paint6_linear_1507_34610" x1="49.6929" y1="24.7293" x2="49.795" y2="26.2473" gradientUnits="userSpaceOnUse">
<stop offset="0.0036036" stop-color="#FCC5B3"/>
<stop offset="1" stop-color="#FCAA8E"/>
</linearGradient>
<linearGradient id="paint7_linear_1507_34610" x1="65.6958" y1="47.8282" x2="65.7017" y2="50.5353" gradientUnits="userSpaceOnUse">
<stop offset="0.0036036" stop-color="#FCC5B3"/>
<stop offset="1" stop-color="#FCAA8E"/>
</linearGradient>
<linearGradient id="paint8_linear_1507_34610" x1="54.4787" y1="35.4487" x2="54.678" y2="48.8604" gradientUnits="userSpaceOnUse">
<stop stop-color="#66B3FF"/>
<stop offset="1" stop-color="#0080FF"/>
</linearGradient>
</defs>
</svg>
